<svg xmlns="http://www.w3.org/2000/svg" xmlns:xlink="http://www.w3.org/1999/xlink" width="118" height="118" viewBox="0 0 118 118">
  <defs>
    <filter id="play_circle_FILL0_wght400_GRAD0_opsz48" x="0" y="0" width="118" height="118" filterUnits="userSpaceOnUse">
      <feOffset dy="3" input="SourceAlpha"/>
      <feGaussianBlur stdDeviation="3" result="blur"/>
      <feFlood flood-opacity="0.161"/>
      <feComposite operator="in" in2="blur"/>
      <feComposite in="SourceGraphic"/>
    </filter>
  </defs>
  <g transform="matrix(1, 0, 0, 1, 0, 0)" filter="url(#play_circle_FILL0_wght400_GRAD0_opsz48)">
    <path id="play_circle_FILL0_wght400_GRAD0_opsz48-2" data-name="play_circle_FILL0_wght400_GRAD0_opsz48" d="M41.875,75.25,75.25,54,41.875,32.75ZM54,104a48.38,48.38,0,0,1-19.375-3.937A50.376,50.376,0,0,1,7.938,73.375,48.38,48.38,0,0,1,4,54,48.688,48.688,0,0,1,7.938,34.5a49.969,49.969,0,0,1,10.75-15.875A51.255,51.255,0,0,1,34.625,7.938,48.38,48.38,0,0,1,54,4,48.688,48.688,0,0,1,73.5,7.938,49.922,49.922,0,0,1,100.063,34.5,48.688,48.688,0,0,1,104,54a48.38,48.38,0,0,1-3.937,19.375A51.255,51.255,0,0,1,89.375,89.313,49.969,49.969,0,0,1,73.5,100.063,48.688,48.688,0,0,1,54,104Zm0-7.5A40.9,40.9,0,0,0,84.125,84.063,41.061,41.061,0,0,0,96.5,54,41,41,0,0,0,84.125,23.875,41,41,0,0,0,54,11.5,41.061,41.061,0,0,0,23.938,23.875,40.9,40.9,0,0,0,11.5,54,40.956,40.956,0,0,0,23.938,84.063,40.956,40.956,0,0,0,54,96.5ZM54,54Z" transform="translate(5 2)" fill="#fff"/>
  </g>
</svg>
